<?xml version="1.0" encoding="UTF-8"?><svg width="800" height="600" viewBox="0 0 800 600" xmlns="http://www.w3.org/2000/svg"><defs><linearGradient id="grad1" x1="0%" y1="0%" x2="100%" y2="0%"><stop offset="0%" style="stop-color:#4080FF;stop-opacity:0.2"/><stop offset="100%" style="stop-color:#4080FF;stop-opacity:0"/></linearGradient><style>.layer-title{font-size:16px;font-weight:500;fill:#1D2129}.node{fill:#fff;stroke:#4080FF;stroke-width:1.5;rx:4}.node-text{font-size:14px;fill:#4E5969}.arrow{fill:none;stroke:#86909C;stroke-width:1.5;marker-end:url(#arrowhead)}.layer-bg{fill:#F7F8FA;stroke:#E5E6EB;stroke-width:1;rx:8}</style><marker id="arrowhead" markerWidth="10" markerHeight="7" refX="9" refY="3.5" orient="auto"><polygon points="0 0, 10 3.5, 0 7" fill="#86909C"/></marker></defs><g transform="translate(50,50)"><rect width="700" height="500" class="layer-bg"/><g transform="translate(20,20)"><text class="layer-title">数据源层</text><g transform="translate(0,30)"><rect width="140" height="50" class="node"/><text x="70" y="30" class="node-text" text-anchor="middle">数据源系统</text></g><g transform="translate(180,30)"><rect width="140" height="50" class="node"/><text x="70" y="30" class="node-text" text-anchor="middle">DWS</text></g><g transform="translate(360,30)"><rect width="140" height="50" class="node"/><text x="70" y="30" class="node-text" text-anchor="middle">ODS</text></g></g><g transform="translate(20,150)"><text class="layer-title">数据仓库层</text><g transform="translate(0,30)"><rect width="140" height="50" class="node"/><text x="70" y="30" class="node-text" text-anchor="middle">风险数据市场</text></g><g transform="translate(180,30)"><rect width="140" height="50" class="node"/><text x="70" y="30" class="node-text" text-anchor="middle">报表数据市场</text></g><g transform="translate(360,30)"><rect width="140" height="50" class="node"/><text x="70" y="30" class="node-text" text-anchor="middle">良好数据市场</text></g></g><g transform="translate(20,280)"><text class="layer-title">数据服务层</text><g transform="translate(0,30)"><rect width="140" height="50" class="node"/><text x="70" y="30" class="node-text" text-anchor="middle">API服务</text></g><g transform="translate(180,30)"><rect width="140" height="50" class="node"/><text x="70" y="30" class="node-text" text-anchor="middle">可视化服务</text></g><g transform="translate(360,30)"><rect width="140" height="50" class="node"/><text x="70" y="30" class="node-text" text-anchor="middle">数字营销服务</text></g></g><g transform="translate(20,410)"><text class="layer-title">应用层</text><g transform="translate(0,30)"><rect width="140" height="50" class="node"/><text x="70" y="30" class="node-text" text-anchor="middle">数字学堂</text></g><g transform="translate(180,30)"><rect width="140" height="50" class="node"/><text x="70" y="30" class="node-text" text-anchor="middle">数字营销</text></g><g transform="translate(360,30)"><rect width="140" height="50" class="node"/><text x="70" y="30" class="node-text" text-anchor="middle">LTV</text></g></g><path d="M90,100 L90,180" class="arrow"/><path d="M270,100 L270,180" class="arrow"/><path d="M450,100 L450,180" class="arrow"/><path d="M90,230 L90,310" class="arrow"/><path d="M270,230 L270,310" class="arrow"/><path d="M450,230 L450,310" class="arrow"/><path d="M90,360 L90,440" class="arrow"/><path d="M270,360 L270,440" class="arrow"/><path d="M450,360 L450,440" class="arrow"/></g></svg>