<svg width="64" height="64" viewBox="0 0 64 64" fill="none" xmlns="http://www.w3.org/2000/svg">
  <circle cx="32" cy="32" r="32" fill="#4080FF"/>
  <path d="M32 16C26.48 16 22 20.48 22 26C22 31.52 26.48 36 32 36C37.52 36 42 31.52 42 26C42 20.48 37.52 16 32 16ZM32 34C27.59 34 24 30.41 24 26C24 21.59 27.59 18 32 18C36.41 18 40 21.59 40 26C40 30.41 36.41 34 32 34Z" fill="white"/>
  <path d="M32 38C25.33 38 20 43.33 20 50V52H44V50C44 43.33 38.67 38 32 38ZM22 50V50.01C22 44.49 26.49 40 32 40C37.51 40 42 44.49 42 50.01V50H22Z" fill="white"/>
</svg>